<svg id="visual" viewBox="0 0 900 600" width="900" height="600" xmlns="http://www.w3.org/2000/svg" xmlns:xlink="http://www.w3.org/1999/xlink" version="1.1"><rect x="0" y="0" width="900" height="600" fill="#f0f0f0"></rect><defs><linearGradient id="grad1_0" x1="33.3%" y1="100%" x2="100%" y2="0%"><stop offset="20%" stop-color="#f0f0f0" stop-opacity="1"></stop><stop offset="80%" stop-color="#f0f0f0" stop-opacity="1"></stop></linearGradient></defs><defs><linearGradient id="grad2_0" x1="0%" y1="100%" x2="66.7%" y2="0%"><stop offset="20%" stop-color="#f0f0f0" stop-opacity="1"></stop><stop offset="80%" stop-color="#f0f0f0" stop-opacity="1"></stop></linearGradient></defs><g transform="translate(900, 600)"><path d="M-351.5 0C-330.7 -54.4 -309.9 -108.8 -283.2 -163.5C-256.5 -218.2 -223.9 -273.1 -175.8 -304.4C-127.6 -335.8 -63.8 -343.7 0 -351.5L0 0Z" fill="#f4f4f4"></path></g><g transform="translate(0, 0)"><path d="M351.5 0C312.7 44 273.9 88 249.4 144C225 200 214.9 267.9 175.8 304.4C136.6 341 68.3 346.3 0 351.5L0 0Z" fill="#f4f4f4"></path></g></svg>