<svg id="visual" viewBox="0 0 900 600" width="900" height="600" xmlns="http://www.w3.org/2000/svg" xmlns:xlink="http://www.w3.org/1999/xlink" version="1.1"><path d="M0 61L13.7 63C27.3 65 54.7 69 82 84C109.3 99 136.7 125 163.8 126C191 127 218 103 245.2 90C272.3 77 299.7 75 327 76C354.3 77 381.7 81 409 95C436.3 109 463.7 133 491 139C518.3 145 545.7 133 573 119C600.3 105 627.7 89 654.8 82C682 75 709 77 736.2 80C763.3 83 790.7 87 818 89C845.3 91 872.7 91 886.3 91L900 91L900 0L886.3 0C872.7 0 845.3 0 818 0C790.7 0 763.3 0 736.2 0C709 0 682 0 654.8 0C627.7 0 600.3 0 573 0C545.7 0 518.3 0 491 0C463.7 0 436.3 0 409 0C381.7 0 354.3 0 327 0C299.7 0 272.3 0 245.2 0C218 0 191 0 163.8 0C136.7 0 109.3 0 82 0C54.7 0 27.3 0 13.7 0L0 0Z" fill="#e0e0e0"></path><path d="M0 157L13.7 155C27.3 153 54.7 149 82 162C109.3 175 136.7 205 163.8 210C191 215 218 195 245.2 179C272.3 163 299.7 151 327 146C354.3 141 381.7 143 409 158C436.3 173 463.7 201 491 219C518.3 237 545.7 245 573 235C600.3 225 627.7 197 654.8 175C682 153 709 137 736.2 134C763.3 131 790.7 141 818 149C845.3 157 872.7 163 886.3 166L900 169L900 89L886.3 89C872.7 89 845.3 89 818 87C790.7 85 763.3 81 736.2 78C709 75 682 73 654.8 80C627.7 87 600.3 103 573 117C545.7 131 518.3 143 491 137C463.7 131 436.3 107 409 93C381.7 79 354.3 75 327 74C299.7 73 272.3 75 245.2 88C218 101 191 125 163.8 124C136.7 123 109.3 97 82 82C54.7 67 27.3 63 13.7 61L0 59Z" fill="#f1f1f1"></path><path d="M0 379L13.7 357C27.3 335 54.7 291 82 281C109.3 271 136.7 295 163.8 321C191 347 218 375 245.2 389C272.3 403 299.7 403 327 404C354.3 405 381.7 407 409 397C436.3 387 463.7 365 491 374C518.3 383 545.7 423 573 426C600.3 429 627.7 395 654.8 362C682 329 709 297 736.2 289C763.3 281 790.7 297 818 301C845.3 305 872.7 297 886.3 293L900 289L900 167L886.3 164C872.7 161 845.3 155 818 147C790.7 139 763.3 129 736.2 132C709 135 682 151 654.8 173C627.7 195 600.3 223 573 233C545.7 243 518.3 235 491 217C463.7 199 436.3 171 409 156C381.7 141 354.3 139 327 144C299.7 149 272.3 161 245.2 177C218 193 191 213 163.8 208C136.7 203 109.3 173 82 160C54.7 147 27.3 151 13.7 153L0 155Z" fill="#f5f5f5"></path><path d="M0 565L13.7 554C27.3 543 54.7 521 82 517C109.3 513 136.7 527 163.8 529C191 531 218 521 245.2 514C272.3 507 299.7 503 327 505C354.3 507 381.7 515 409 516C436.3 517 463.7 511 491 518C518.3 525 545.7 545 573 553C600.3 561 627.7 557 654.8 549C682 541 709 529 736.2 527C763.3 525 790.7 533 818 534C845.3 535 872.7 529 886.3 526L900 523L900 287L886.3 291C872.7 295 845.3 303 818 299C790.7 295 763.3 279 736.2 287C709 295 682 327 654.8 360C627.7 393 600.3 427 573 424C545.7 421 518.3 381 491 372C463.7 363 436.3 385 409 395C381.7 405 354.3 403 327 402C299.7 401 272.3 401 245.2 387C218 373 191 345 163.8 319C136.7 293 109.3 269 82 279C54.7 289 27.3 333 13.7 355L0 377Z" fill="#f1f1f1"></path><path d="M0 601L13.7 601C27.3 601 54.7 601 82 601C109.3 601 136.7 601 163.8 601C191 601 218 601 245.2 601C272.3 601 299.7 601 327 601C354.3 601 381.7 601 409 601C436.3 601 463.7 601 491 601C518.3 601 545.7 601 573 601C600.3 601 627.7 601 654.8 601C682 601 709 601 736.2 601C763.3 601 790.7 601 818 601C845.3 601 872.7 601 886.3 601L900 601L900 521L886.3 524C872.7 527 845.3 533 818 532C790.7 531 763.3 523 736.2 525C709 527 682 539 654.8 547C627.7 555 600.3 559 573 551C545.7 543 518.3 523 491 516C463.7 509 436.3 515 409 514C381.7 513 354.3 505 327 503C299.7 501 272.3 505 245.2 512C218 519 191 529 163.8 527C136.7 525 109.3 511 82 515C54.7 519 27.3 541 13.7 552L0 563Z" fill="#e0e0e0"></path></svg>